<?xml version="1.0" encoding="UTF-8"?>
<svg width="100" height="100" version="1.1" viewBox="0 0 26.458 26.458" xmlns="http://www.w3.org/2000/svg" xmlns:cc="http://creativecommons.org/ns#" xmlns:dc="http://purl.org/dc/elements/1.1/" xmlns:rdf="http://www.w3.org/1999/02/22-rdf-syntax-ns#">
 <metadata>
  <rdf:RDF>
   <cc:Work rdf:about="">
    <dc:format>image/svg+xml</dc:format>
    <dc:type rdf:resource="http://purl.org/dc/dcmitype/StillImage"/>
    <dc:title/>
   </cc:Work>
  </rdf:RDF>
 </metadata>
 <g fill="#ffb300">
  <g shape-rendering="auto">
   <path d="m4.0081 10.088a0.52989 0.53081 60 0 0-0.11827 1.0409l2.8975 0.77651a0.53085 0.53177 60 1 0 0.27883-1.0254l-2.9014-0.77259a0.52989 0.53081 60 0 0-0.15664-0.01952z" color="#000000" color-rendering="auto" dominant-baseline="auto" image-rendering="auto" solid-color="#000000" style="font-feature-settings:normal;font-variant-alternates:normal;font-variant-caps:normal;font-variant-ligatures:normal;font-variant-numeric:normal;font-variant-position:normal;isolation:auto;mix-blend-mode:normal;shape-padding:0;text-decoration-color:#000000;text-decoration-line:none;text-decoration-style:solid;text-indent:0;text-orientation:mixed;text-transform:none;white-space:normal"/>
   <path d="m19.737 14.286a0.52989 0.53081 60 0 0-0.11827 1.0448l2.9014 0.77259a0.53035 0.53126 60 1 0 0.27491-1.0254l-2.9014-0.77259a0.52989 0.53081 60 0 0-0.15664-0.01952z" color="#000000" color-rendering="auto" dominant-baseline="auto" image-rendering="auto" solid-color="#000000" style="font-feature-settings:normal;font-variant-alternates:normal;font-variant-caps:normal;font-variant-ligatures:normal;font-variant-numeric:normal;font-variant-position:normal;isolation:auto;mix-blend-mode:normal;shape-padding:0;text-decoration-color:#000000;text-decoration-line:none;text-decoration-style:solid;text-indent:0;text-orientation:mixed;text-transform:none;white-space:normal"/>
   <path d="m16.632 18.311a0.52989 0.53081 60 0 0-0.43531 0.80248l1.502 2.5971a0.52989 0.53081 60 1 0 0.91682-0.52893l-1.4981-2.6009a0.52989 0.53081 60 0 0-0.48543-0.26963z" color="#000000" color-rendering="auto" dominant-baseline="auto" image-rendering="auto" solid-color="#000000" style="font-feature-settings:normal;font-variant-alternates:normal;font-variant-caps:normal;font-variant-ligatures:normal;font-variant-numeric:normal;font-variant-position:normal;isolation:auto;mix-blend-mode:normal;shape-padding:0;text-decoration-color:#000000;text-decoration-line:none;text-decoration-style:solid;text-indent:0;text-orientation:mixed;text-transform:none;white-space:normal"/>
   <path d="m8.5006 4.2265a0.52989 0.53081 60 0 0-0.43531 0.80248l1.5019 2.601a0.52989 0.53081 60 1 0 0.91684-0.5328l-1.4981-2.6009a0.52989 0.53081 60 0 0-0.48539-0.26971z" color="#000000" color-rendering="auto" dominant-baseline="auto" image-rendering="auto" solid-color="#000000" style="font-feature-settings:normal;font-variant-alternates:normal;font-variant-caps:normal;font-variant-ligatures:normal;font-variant-numeric:normal;font-variant-position:normal;isolation:auto;mix-blend-mode:normal;shape-padding:0;text-decoration-color:#000000;text-decoration-line:none;text-decoration-style:solid;text-indent:0;text-orientation:mixed;text-transform:none;white-space:normal"/>
   <path d="m7.5598 15.892a0.52989 0.53081 60 0 0-0.23503 0.07453l-2.6055 1.5045a0.53099 0.53191 60 1 0 0.53193 0.91915l2.6015-1.5045a0.52989 0.53081 60 0 0-0.293-0.99371z" color="#000000" color-rendering="auto" dominant-baseline="auto" image-rendering="auto" solid-color="#000000" style="font-feature-settings:normal;font-variant-alternates:normal;font-variant-caps:normal;font-variant-ligatures:normal;font-variant-numeric:normal;font-variant-position:normal;isolation:auto;mix-blend-mode:normal;shape-padding:0;text-decoration-color:#000000;text-decoration-line:none;text-decoration-style:solid;text-indent:0;text-orientation:mixed;text-transform:none;white-space:normal"/>
   <path transform="scale(.26458)" d="m59.781 12.314a2.0028 2.0062 60 0 0-1.8359 1.5098l-2.5586 9.541c0.47019-0.21284 0.95377-0.40631 1.4551-0.57031 0.57754-0.18725 1.1834-0.26213 1.7793-0.375 0.54185-1.0381 1.1991-2.005 1.9434-2.8945l1.2578-4.668a2.0028 2.0062 60 0 0-2.041-2.543z" color="#000000" color-rendering="auto" dominant-baseline="auto" image-rendering="auto" solid-color="#000000" stroke-width="3.7796" style="font-feature-settings:normal;font-variant-alternates:normal;font-variant-caps:normal;font-variant-ligatures:normal;font-variant-numeric:normal;font-variant-position:normal;isolation:auto;mix-blend-mode:normal;shape-padding:0;text-decoration-color:#000000;text-decoration-line:none;text-decoration-style:solid;text-indent:0;text-orientation:mixed;text-transform:none;white-space:normal"/>
   <path d="m11.591 18.98a0.52989 0.53081 60 0 0-0.48593 0.39947l-0.78152 2.9001a0.53036 0.53127 60 1 0 1.0259 0.27314l0.78152-2.9001a0.52989 0.53081 60 0 0-0.53995-0.67262z" color="#000000" color-rendering="auto" dominant-baseline="auto" image-rendering="auto" solid-color="#000000" style="font-feature-settings:normal;font-variant-alternates:normal;font-variant-caps:normal;font-variant-ligatures:normal;font-variant-numeric:normal;font-variant-position:normal;isolation:auto;mix-blend-mode:normal;shape-padding:0;text-decoration-color:#000000;text-decoration-line:none;text-decoration-style:solid;text-indent:0;text-orientation:mixed;text-transform:none;white-space:normal"/>
  </g>
  <path transform="scale(.26458)" d="m47.469 32.781c-3.2219 0.56673-6.214 2.0475-8.6191 4.2656-6.9092 6.3974-7.328 17.172-0.93555 24.066 6.3929 6.8942 17.177 7.2965 24.086 0.89844 3.6117-3.3504 5.5987-8.0959 5.4492-13.014-0.52794 0.32049-1.0718 0.61208-1.668 0.80859l-0.0078 0.0078c-7.4748 2.4456-15.598-1.6119-18.064-9.0508-0.88744-2.6761-0.90801-5.4318-0.24023-7.9824z" stroke-width="3.7796" style="paint-order:normal"/>
 </g>
 <path d="m18.627 4.4763a3.3404 3.1195 2.0644 0 0-0.65092 0.13353 3.3404 3.1195 2.0644 0 0-2.0926 1.915 3.1007 3.1265 86.379 0 0-0.64011 0.13608 3.1007 3.1265 86.379 0 0-1.9935 3.9162 3.1007 3.1265 86.379 0 0 3.9467 1.9731 3.1007 3.1265 86.379 0 0 1.3074-0.83446 3.4491 4.3776 71.908 0 0 4.7376 1.0116 3.4491 4.3776 71.908 0 0 3.0777-4.6424 3.4491 4.3776 71.908 0 0-4.4334-2.1061 3.3404 3.1195 2.0644 0 0-3.2589-1.5027z" fill="#fff" style="paint-order:normal"/>
</svg>
