<?xml version="1.0" encoding="UTF-8"?>
<svg width="100" height="100" version="1.1" viewBox="0 0 26.458 26.458" xmlns="http://www.w3.org/2000/svg" xmlns:cc="http://creativecommons.org/ns#" xmlns:dc="http://purl.org/dc/elements/1.1/" xmlns:rdf="http://www.w3.org/1999/02/22-rdf-syntax-ns#">
 <metadata>
  <rdf:RDF>
   <cc:Work rdf:about="">
    <dc:format>image/svg+xml</dc:format>
    <dc:type rdf:resource="http://purl.org/dc/dcmitype/StillImage"/>
    <dc:title/>
   </cc:Work>
  </rdf:RDF>
 </metadata>
 <path d="m9.1714 3.0612a5.0223 4.7512 2.5469 0 0-0.74155 0.028422 5.0223 4.7512 2.5469 0 0-0.97874 0.2036 5.0223 4.7512 2.5469 0 0-3.146 2.9166 4.7003 4.7231 6.2245 0 0-0.96272 0.20722 4.7003 4.7231 6.2245 0 0-2.9972 5.9649 4.7003 4.7231 6.2245 0 0 3.7253 3.1837c0.00151-0.0033 0.00314-0.0065 0.00465-0.0098 0.078881-0.17169 0.16572-0.33912 0.26096-0.50229 0.085855-0.14708 0.17835-0.28978 0.27698-0.42891 0.014918-0.02111 0.029237-0.04265 0.044441-0.06356 0.33871-0.4644 0.74508-0.88166 1.2159-1.2299 0.15792-0.1168 0.32212-0.22618 0.4935-0.32711 0.07441-0.04382 0.15-0.08597 0.22686-0.12661 0.014524-0.0077 0.028797-0.01567 0.043408-0.02325 0.058708-0.03039 0.11872-0.05885 0.1788-0.08733 0.032345-0.01537 0.063892-0.0317 0.096634-0.04651 0.083363-0.03762 0.16838-0.07362 0.25424-0.10749 0.00434-0.0017 0.00858-0.0035 0.012919-0.0052 1.484e-4 -5.8e-5 3.683e-4 5.8e-5 5.167e-4 0 0.079006-0.03094 0.15923-0.05967 0.24029-0.08733 0.016137-0.0055 0.03184-0.01168 0.048059-0.01705 3.648e-4 -1.21e-4 6.683e-4 -3.96e-4 0.00103-5.17e-4 0.32031-0.10521 0.65198-0.16548 0.98546-0.21239 0.37272-0.87268 0.94673-1.642 1.6743-2.2432 0.0056-0.0047 0.01087-0.0098 0.01654-0.01447 1.87e-4 -1.54e-4 3.3e-4 -3.64e-4 5.17e-4 -5.17e-4 0.0182-0.01495 0.03742-0.02867 0.05581-0.043408 0.14661-0.11728 0.29852-0.22899 0.45681-0.33228 0.44539-0.29098 0.93561-0.52455 1.4629-0.68884h0.0015c0.16618-0.051498 0.33533-0.092728 0.50591-0.12712 0.17114-0.034508 0.34373-0.062202 0.51727-0.085782h5.17e-4l0.01705-0.017053 5.17e-4 -5.167e-4 0.13694-0.016019h0.0036c0.68471-0.074525 1.3598-0.029833 2.0045 0.11524 0.02242 0.00504 0.04535 0.00814 0.0677 0.013436 1.64e-4 3.87e-5 3.53e-4 -3.89e-5 5.17e-4 0 0.13282 0.031469 0.26438 0.067413 0.39429 0.10749 1.3018 0.40071 2.4484 1.226 3.2427 2.3512 0.18377-0.02744 0.36621-0.04624 0.54776-0.06098 0.13541-0.01224 0.26944-0.01906 0.40359-0.02532 0.01339-6.05e-4 0.02693-2e-3 0.04031-0.0026a5.2464 6.5903 70.929 0 0-0.011307-2.6339 5.2464 6.5903 70.929 0 0-6.6657-3.2075 5.0223 4.7512 2.5469 0 0-4.1584-2.3171z" fill="#fff" style="paint-order:normal"/>
 <path d="m14.164 9.4808c-0.25577-0.00764-0.51397 0.00177-0.77307 0.029972-0.35134 0.038738-0.69805 0.11102-1.0335 0.21497-1.5507 0.48366-2.766 1.6161-3.3026 3.0587l-0.085782 0.22841-0.24443 0.02739c-0.34221 0.03669-0.67838 0.10956-1.0056 0.21704-2.5849 0.85666-3.9872 3.6458-3.1367 6.244 0.85029 2.5978 3.6223 4.002 6.2068 3.1465 0.78591-0.26242 1.495-0.71975 2.0588-1.3301l0.31057-0.33589 0.28887 0.35553c1.5492 1.9062 4.645 2.6027 7.6211 1.6149 3.7433-1.2467 5.9141-4.6362 4.9826-7.4961-0.80919-2.4792-3.7489-3.9305-7.0935-3.3589l-0.262 0.04289-0.14056-0.22272c-0.93488-1.4728-2.6005-2.3831-4.3909-2.4365z" fill="#fff" style="paint-order:normal"/>
</svg>
