<?xml version="1.0" encoding="UTF-8"?>
<svg width="100" height="100" version="1.1" viewBox="0 0 26.458 26.458" xmlns="http://www.w3.org/2000/svg" xmlns:cc="http://creativecommons.org/ns#" xmlns:dc="http://purl.org/dc/elements/1.1/" xmlns:rdf="http://www.w3.org/1999/02/22-rdf-syntax-ns#">
 <metadata>
  <rdf:RDF>
   <cc:Work rdf:about="">
    <dc:format>image/svg+xml</dc:format>
    <dc:type rdf:resource="http://purl.org/dc/dcmitype/StillImage"/>
    <dc:title/>
   </cc:Work>
  </rdf:RDF>
 </metadata>
 <g fill="#ffb300">
  <g shape-rendering="auto">
   <path d="m2.9498 11.146a0.52989 0.53081 60 0 0-0.11827 1.0409l2.8975 0.77651a0.53085 0.53177 60 1 0 0.27883-1.0254l-2.9014-0.77259a0.52989 0.53081 60 0 0-0.15664-0.01952z" color="#000000" color-rendering="auto" dominant-baseline="auto" image-rendering="auto" solid-color="#000000" style="font-feature-settings:normal;font-variant-alternates:normal;font-variant-caps:normal;font-variant-ligatures:normal;font-variant-numeric:normal;font-variant-position:normal;isolation:auto;mix-blend-mode:normal;shape-padding:0;text-decoration-color:#000000;text-decoration-line:none;text-decoration-style:solid;text-indent:0;text-orientation:mixed;text-transform:none;white-space:normal"/>
   <path transform="scale(.26458)" d="m79.867 60.379c-1.5176 1.1333-3.2546 2.0688-5.1523 2.7793l6.4023 1.7051c2.6161 0.74337 3.6785-3.2188 1.0391-3.875z" color="#000000" color-rendering="auto" dominant-baseline="auto" image-rendering="auto" solid-color="#000000" stroke-width="3.7796" style="font-feature-settings:normal;font-variant-alternates:normal;font-variant-caps:normal;font-variant-ligatures:normal;font-variant-numeric:normal;font-variant-position:normal;isolation:auto;mix-blend-mode:normal;shape-padding:0;text-decoration-color:#000000;text-decoration-line:none;text-decoration-style:solid;text-indent:0;text-orientation:mixed;text-transform:none;white-space:normal"/>
   <path d="m15.574 19.369a0.52989 0.53081 60 0 0-0.43531 0.80248l1.502 2.5971a0.52989 0.53081 60 1 0 0.91682-0.52893l-1.4981-2.6009a0.52989 0.53081 60 0 0-0.48543-0.26963z" color="#000000" color-rendering="auto" dominant-baseline="auto" image-rendering="auto" solid-color="#000000" style="font-feature-settings:normal;font-variant-alternates:normal;font-variant-caps:normal;font-variant-ligatures:normal;font-variant-numeric:normal;font-variant-position:normal;isolation:auto;mix-blend-mode:normal;shape-padding:0;text-decoration-color:#000000;text-decoration-line:none;text-decoration-style:solid;text-indent:0;text-orientation:mixed;text-transform:none;white-space:normal"/>
   <path d="m7.4423 5.2848a0.52989 0.53081 60 0 0-0.43531 0.80248l1.5019 2.601a0.52989 0.53081 60 1 0 0.91684-0.5328l-1.4981-2.6009a0.52989 0.53081 60 0 0-0.48539-0.26971z" color="#000000" color-rendering="auto" dominant-baseline="auto" image-rendering="auto" solid-color="#000000" style="font-feature-settings:normal;font-variant-alternates:normal;font-variant-caps:normal;font-variant-ligatures:normal;font-variant-numeric:normal;font-variant-position:normal;isolation:auto;mix-blend-mode:normal;shape-padding:0;text-decoration-color:#000000;text-decoration-line:none;text-decoration-style:solid;text-indent:0;text-orientation:mixed;text-transform:none;white-space:normal"/>
   <path d="m6.5015 16.95a0.52989 0.53081 60 0 0-0.23503 0.07453l-2.6055 1.5045a0.53099 0.53191 60 1 0 0.53193 0.91915l2.6015-1.5045a0.52989 0.53081 60 0 0-0.293-0.99371z" color="#000000" color-rendering="auto" dominant-baseline="auto" image-rendering="auto" solid-color="#000000" style="font-feature-settings:normal;font-variant-alternates:normal;font-variant-caps:normal;font-variant-ligatures:normal;font-variant-numeric:normal;font-variant-position:normal;isolation:auto;mix-blend-mode:normal;shape-padding:0;text-decoration-color:#000000;text-decoration-line:none;text-decoration-style:solid;text-indent:0;text-orientation:mixed;text-transform:none;white-space:normal"/>
   <path d="m14.759 4.3167a0.52989 0.53081 60 0 0-0.48592 0.39947l-0.7776 2.9001a0.52989 0.53081 60 1 0 1.022 0.27314l0.78152-2.9001a0.52989 0.53081 60 0 0-0.53995-0.67262z" color="#000000" color-rendering="auto" dominant-baseline="auto" image-rendering="auto" solid-color="#000000" style="font-feature-settings:normal;font-variant-alternates:normal;font-variant-caps:normal;font-variant-ligatures:normal;font-variant-numeric:normal;font-variant-position:normal;isolation:auto;mix-blend-mode:normal;shape-padding:0;text-decoration-color:#000000;text-decoration-line:none;text-decoration-style:solid;text-indent:0;text-orientation:mixed;text-transform:none;white-space:normal"/>
   <path d="m10.533 20.038a0.52989 0.53081 60 0 0-0.48593 0.39947l-0.78152 2.9001a0.53036 0.53127 60 1 0 1.0259 0.27314l0.78152-2.9001a0.52989 0.53081 60 0 0-0.53995-0.67262z" color="#000000" color-rendering="auto" dominant-baseline="auto" image-rendering="auto" solid-color="#000000" style="font-feature-settings:normal;font-variant-alternates:normal;font-variant-caps:normal;font-variant-ligatures:normal;font-variant-numeric:normal;font-variant-position:normal;isolation:auto;mix-blend-mode:normal;shape-padding:0;text-decoration-color:#000000;text-decoration-line:none;text-decoration-style:solid;text-indent:0;text-orientation:mixed;text-transform:none;white-space:normal"/>
  </g>
  <path transform="scale(.26458)" d="m45.631 36.52c-4.0136 0.19303-7.832 1.7965-10.781 4.5273-6.9096 6.3975-7.3285 17.173-0.93555 24.066 6.3928 6.8941 17.177 7.2963 24.086 0.89844 1.0258-0.95648 1.9298-2.0356 2.6914-3.2129-1.3248-0.61733-2.5608-1.3986-3.6738-2.332-1.1984 0.93181-2.3613 1.936-3.8164 2.4121-6.8674 2.2306-14.343-1.458-16.617-8.2676-2.2745-6.809 1.5353-14.209 8.4023-16.439h0.0059c0.50192-0.16158 1.026-0.22334 1.543-0.32422 0.24615-0.45643 0.52133-0.89494 0.81055-1.3223-0.57111-0.0307-1.1434-0.03266-1.7148-0.0059z" stroke-width="3.7796" style="paint-order:normal"/>
 </g>
 <path d="m15.163 8.7699a3.0167 2.7967 1.8651 0 0-0.58785 0.11972 3.0167 2.7967 1.8651 0 0-1.8898 1.7169 2.7799 2.8235 88.074 0 0-0.57809 0.122 2.7799 2.8235 88.074 0 0-1.8003 3.511 2.7799 2.8235 88.074 0 0 3.5643 1.769 2.7799 2.8235 88.074 0 0 1.1808-0.74812 3.0943 3.9507 72.423 0 0 4.2786 0.90692 3.0943 3.9507 72.423 0 0 2.7795-4.1621 3.0943 3.9507 72.423 0 0-4.0039-1.8882 3.0167 2.7967 1.8651 0 0-2.9431-1.3472z" fill="#fff" style="paint-order:normal"/>
 <path d="m19.805 4.5077a3.0167 2.7967 1.8651 0 0-0.44544 0.017053 3.0167 2.7967 1.8651 0 0-0.58807 0.11937 3.0167 2.7967 1.8651 0 0-1.8898 1.7172 2.7799 2.8235 88.074 0 0-0.57825 0.12195 2.7799 2.8235 88.074 0 0-1.7864 1.7415c0.10502-0.023032 0.21118-0.041653 0.31729-0.060461l0.02739-0.027388 0.23047-0.025321c1.2854-0.1371 2.4935 0.43407 3.283 1.4004 1.9528-0.17964 3.8072 0.61448 4.3635 2.2851 0.03285 0.09881 0.05567 0.19836 0.07803 0.29817a3.0943 3.9507 72.423 0 0 0.71002-0.17311 3.0943 3.9507 72.423 0 0 2.7796-4.162 3.0943 3.9507 72.423 0 0-4.0038-1.8882 3.0167 2.7967 1.8651 0 0-2.4975-1.3642z" fill="#fff" style="paint-order:normal"/>
</svg>
