<?xml version="1.0" encoding="UTF-8"?>
<svg id="svg6" width="100" height="100" version="1.1" viewBox="0 0 26.458 26.458" xmlns="http://www.w3.org/2000/svg">
 <path id="path4" transform="scale(.26458)" d="m46.701 14.871a35.588 35.65 60.838 0 0-15.697 8.2051 35.588 35.65 60.838 0 0-2.6914 50.283 35.588 35.65 60.838 0 0 50.324 2.6152 35.588 35.65 60.838 0 0 2.1797-2.1699 35.588 35.65 60.838 0 1-34.631-10.814 35.588 35.65 60.838 0 1-2.2891-2.8301c-0.099343 0.037803-0.19709 0.079997-0.29883 0.11328-6.5579 2.1302-13.681-1.39-15.85-7.8828-2.1687-6.4921 1.4601-13.542 8.0176-15.672 0.46694-0.1503 0.95169-0.22913 1.4355-0.31055a35.588 35.65 60.838 0 1 9.5-21.535v-0.001953zm-9.6094 25.404c-0.055033 0.016606-0.11127 0.027301-0.16602 0.044921-4.6331 1.5109-7.1016 6.3415-5.5898 10.867 1.4418 4.3169 5.9979 6.7543 10.439 5.6699a35.588 35.65 60.838 0 1-4.6836-16.582z" fill="#ffb300" stroke-width="3.7796" style="paint-order:normal"/>
 <path id="path24" d="m12.672 8.2327a3.0167 2.7967 1.8651 0 0-0.58785 0.11972 3.0167 2.7967 1.8651 0 0-1.8898 1.7169 2.7799 2.8235 88.074 0 0-0.57809 0.122 2.7799 2.8235 88.074 0 0-1.8003 3.511 2.7799 2.8235 88.074 0 0 3.5643 1.769 2.7799 2.8235 88.074 0 0 1.1808-0.74812 3.0943 3.9507 72.423 0 0 4.2786 0.90692 3.0943 3.9507 72.423 0 0 2.7795-4.1621 3.0943 3.9507 72.423 0 0-4.0039-1.8882 3.0167 2.7967 1.8651 0 0-2.9431-1.3472z" fill="#fff" style="paint-order:normal"/>
 <path id="path26" d="m17.314 3.9705a3.0167 2.7967 1.8651 0 0-0.44544 0.017053 3.0167 2.7967 1.8651 0 0-0.58807 0.11937 3.0167 2.7967 1.8651 0 0-1.8898 1.7172 2.7799 2.8235 88.074 0 0-0.57825 0.12195 2.7799 2.8235 88.074 0 0-1.7864 1.7415c0.10502-0.02303 0.21118-0.04165 0.31729-0.06046l0.02739-0.02739 0.23047-0.02532c1.2854-0.1371 2.4935 0.43407 3.283 1.4004 1.9528-0.17964 3.8072 0.61448 4.3635 2.2851 0.03285 0.09881 0.05567 0.19836 0.07803 0.29817a3.0943 3.9507 72.423 0 0 0.71002-0.17311 3.0943 3.9507 72.423 0 0 2.7796-4.162 3.0943 3.9507 72.423 0 0-4.0038-1.8882 3.0167 2.7967 1.8651 0 0-2.4975-1.3642z" fill="#fff" style="paint-order:normal"/>
</svg>
