<svg height="100" viewBox="0 0 26.458 26.458" width="100" xmlns="http://www.w3.org/2000/svg"><g fill="#ffb300" stroke-linecap="square" stroke-linejoin="round"><path d="m12.06 3.1404a10.583 10.583 0 0 0 -8.8056 9.4543 10.583 10.583 0 0 0 9.559 11.517 10.583 10.583 0 0 0 10.435-5.7873 9.5656 9.5656 0 0 1 -5.2074.99903 9.5656 9.5656 0 0 1 -8.64-10.409 9.5656 9.5656 0 0 1 2.6589-5.7737z" stroke-width="1.0583"/><path d="m69.117 32.186c-.49261.45701-3.7049-1.9458-4.3763-1.971-.67149-.02517-4.0546 2.1304-4.5116 1.6378-.45701-.49261 1.9458-3.7049 1.971-4.3763.02517-.67149-2.1304-4.0546-1.6378-4.5116.49261-.45701 3.7049 1.9458 4.3763 1.971.67149.02517 4.0546-2.1304 4.5116-1.6378s-1.9458 3.7049-1.971 4.3763c-.02517.67149 2.1304 4.0546 1.6378 4.5116z" stroke-width="1.8719" transform="matrix(.42097 .3774 -.3774 .42097 3.9394 -25.934)"/><path d="m69.117 32.186c-.49261.45701-3.7049-1.9458-4.3763-1.971-.67149-.02517-4.0546 2.1304-4.5116 1.6378-.45701-.49261 1.9458-3.7049 1.971-4.3763.02517-.67149-2.1304-4.0546-1.6378-4.5116.49261-.45701 3.7049 1.9458 4.3763 1.971.67149.02517 4.0546-2.1304 4.5116-1.6378s-1.9458 3.7049-1.971 4.3763c-.02517.67149 2.1304 4.0546 1.6378 4.5116z" stroke-width="3.82" transform="matrix(.20629 .18494 -.18494 .20629 7.8878 -13.606)"/></g></svg>