<?xml version="1.0" encoding="UTF-8"?>
<svg width="100" height="100" version="1.1" viewBox="0 0 26.458 26.458" xmlns="http://www.w3.org/2000/svg" xmlns:cc="http://creativecommons.org/ns#" xmlns:dc="http://purl.org/dc/elements/1.1/" xmlns:rdf="http://www.w3.org/1999/02/22-rdf-syntax-ns#">
 <metadata>
  <rdf:RDF>
   <cc:Work rdf:about="">
    <dc:format>image/svg+xml</dc:format>
    <dc:type rdf:resource="http://purl.org/dc/dcmitype/StillImage"/>
    <dc:title/>
   </cc:Work>
  </rdf:RDF>
 </metadata>
 <g fill="#ffb300">
  <g shape-rendering="auto">
   <path d="m0.47782 7.547a0.49846 0.49932 60 0 0-0.11125 0.97916l2.7256 0.73045a0.49937 0.50023 60 1 0 0.26229-0.96458l-2.7293-0.72676a0.49846 0.49932 60 0 0-0.14735-0.018362z" color="#000000" color-rendering="auto" dominant-baseline="auto" image-rendering="auto" solid-color="#000000" style="font-feature-settings:normal;font-variant-alternates:normal;font-variant-caps:normal;font-variant-ligatures:normal;font-variant-numeric:normal;font-variant-position:normal;isolation:auto;mix-blend-mode:normal;shape-padding:0;text-decoration-color:#000000;text-decoration-line:none;text-decoration-style:solid;text-indent:0;text-orientation:mixed;text-transform:none;white-space:normal"/>
   <path d="m4.7038 2.0332a0.49846 0.49932 60 0 0-0.40949 0.75488l1.4128 2.4467a0.49846 0.49932 60 1 0 0.86246-0.5012l-1.4092-2.4466a0.49846 0.49932 60 0 0-0.4566-0.25371z" color="#000000" color-rendering="auto" dominant-baseline="auto" image-rendering="auto" solid-color="#000000" style="font-feature-settings:normal;font-variant-alternates:normal;font-variant-caps:normal;font-variant-ligatures:normal;font-variant-numeric:normal;font-variant-position:normal;isolation:auto;mix-blend-mode:normal;shape-padding:0;text-decoration-color:#000000;text-decoration-line:none;text-decoration-style:solid;text-indent:0;text-orientation:mixed;text-transform:none;white-space:normal"/>
   <path d="m3.8767 13.006a0.49846 0.49932 60 0 0-0.057877 1e-3 0.49846 0.49932 60 0 0-0.22117 0.07028l-2.451 1.4154a0.49954 0.50041 60 1 0 0.50074 0.86454l0.96995-0.56117c0.47202-0.5774 1.0453-1.0771 1.7053-1.4666a0.49846 0.49932 60 0 0-0.44596-0.32349z" color="#000000" color-rendering="auto" dominant-baseline="auto" image-rendering="auto" solid-color="#000000" style="font-feature-settings:normal;font-variant-alternates:normal;font-variant-caps:normal;font-variant-ligatures:normal;font-variant-numeric:normal;font-variant-position:normal;isolation:auto;mix-blend-mode:normal;shape-padding:0;text-decoration-color:#000000;text-decoration-line:none;text-decoration-style:solid;text-indent:0;text-orientation:mixed;text-transform:none;white-space:normal"/>
   <path d="m17.091 5.3441a0.49846 0.49932 60 0 0-0.22109 0.070108l-2.4509 1.4153a0.49857 0.49944 60 1 0 0.49669 0.86463l2.4509-1.4153a0.49846 0.49932 60 0 0-0.2756-0.93473z" color="#000000" color-rendering="auto" dominant-baseline="auto" image-rendering="auto" solid-color="#000000" style="font-feature-settings:normal;font-variant-alternates:normal;font-variant-caps:normal;font-variant-ligatures:normal;font-variant-numeric:normal;font-variant-position:normal;isolation:auto;mix-blend-mode:normal;shape-padding:0;text-decoration-color:#000000;text-decoration-line:none;text-decoration-style:solid;text-indent:0;text-orientation:mixed;text-transform:none;white-space:normal"/>
   <path d="m11.586 1.1226a0.49846 0.49932 60 0 0-0.4571 0.37577l-0.73148 2.7281a0.49846 0.49932 60 1 0 0.96138 0.25694l0.73516-2.7281a0.49846 0.49932 60 0 0-0.50792-0.63272z" color="#000000" color-rendering="auto" dominant-baseline="auto" image-rendering="auto" solid-color="#000000" style="font-feature-settings:normal;font-variant-alternates:normal;font-variant-caps:normal;font-variant-ligatures:normal;font-variant-numeric:normal;font-variant-position:normal;isolation:auto;mix-blend-mode:normal;shape-padding:0;text-decoration-color:#000000;text-decoration-line:none;text-decoration-style:solid;text-indent:0;text-orientation:mixed;text-transform:none;white-space:normal"/>
  </g>
  <path d="m9.0598 6.1514c-0.99896 0.047914-1.9494 0.44689-2.6835 1.1265-1.5205 1.4113-1.7985 3.7125-0.65732 5.4409 0.27394-0.07611 0.55448-0.12476 0.8356-0.1695 0.7689-1.7089 2.1928-3.0661 4.039-3.6462h0.0021c0.34418-0.10759 0.70144-0.169 1.0588-0.22272l0.02739-0.029455 0.23822-0.027388c0.39829-0.043726 0.79386-0.048319 1.1844-0.024288-0.18547-0.40198-0.4329-0.77235-0.73328-1.0976-0.84975-0.9163-2.0616-1.4105-3.3114-1.3503z" style="paint-order:normal"/>
 </g>
 <path d="m11.993 9.282a6.1574 5.8753 3.0157 0 0-1.1998 0.25151 6.1574 5.8753 3.0157 0 0-3.8571 3.6069 5.7627 5.8405 2.2351 0 0-1.1799 0.2563 5.7627 5.8405 2.2351 0 0-3.6745 7.3762 5.7627 5.8405 2.2351 0 0 7.2748 3.7164 5.7627 5.8405 2.2351 0 0 2.4099-1.5717 6.4816 8.0873 70.227 0 0 8.7326 1.9053 6.4816 8.0873 70.227 0 0 5.673-8.7439 6.4816 8.0873 70.227 0 0-8.1719-3.9668 6.1574 5.8753 3.0157 0 0-6.0069-2.8304z" fill="#fff" style="paint-order:normal"/>
</svg>
