<?xml version="1.0" encoding="UTF-8"?>
<svg width="100" height="100" version="1.1" viewBox="0 0 26.458 26.458" xmlns="http://www.w3.org/2000/svg" xmlns:cc="http://creativecommons.org/ns#" xmlns:dc="http://purl.org/dc/elements/1.1/" xmlns:rdf="http://www.w3.org/1999/02/22-rdf-syntax-ns#">
 <metadata>
  <rdf:RDF>
   <cc:Work rdf:about="">
    <dc:format>image/svg+xml</dc:format>
    <dc:type rdf:resource="http://purl.org/dc/dcmitype/StillImage"/>
    <dc:title/>
   </cc:Work>
  </rdf:RDF>
 </metadata>
 <path d="m11.216 2.43a5.8547 5.4675 2.0644 0 0-1.1409 0.23406 5.8547 5.4675 2.0644 0 0-3.6677 3.3562 5.4347 5.48 86.379 0 0-1.1219 0.23853 5.4347 5.48 86.379 0 0-3.494 6.8641 5.4347 5.48 86.379 0 0 6.9175 3.4583 5.4347 5.48 86.379 0 0 2.2916-1.4626 6.045 7.6726 71.908 0 0 8.3034 1.773 6.045 7.6726 71.908 0 0 5.3944-8.1367 6.045 7.6726 71.908 0 0-7.7705-3.6911 5.8547 5.4675 2.0644 0 0-5.7119-2.6338z" fill="#fff" style="paint-order:normal"/>
 <g fill="#80b2de" stroke-width=".26458">
  <path d="m8.8265 18.42c-0.077714 0-0.15748 0.04582-0.18537 0.13748-0.29691 0.98239-0.93051 1.2494-0.93051 1.9408 0 0.61374 0.49816 1.11 1.1159 1.11 0.61773 0 1.1159-0.49622 1.1159-1.11 0-0.69544-0.63361-0.95446-0.93051-1.9408-0.025905-0.08966-0.10567-0.13748-0.18537-0.13748z"/>
  <path d="m13.229 22.208c-0.07772 0-0.15748 0.04582-0.18537 0.13748-0.29691 0.98239-0.93051 1.2494-0.93051 1.9408 0 0.61374 0.49816 1.11 1.1159 1.11 0.61773 0 1.1159-0.49622 1.1159-1.11 0-0.69544-0.6336-0.95446-0.93051-1.9408-0.02591-0.08966-0.10568-0.13748-0.18537-0.13748z"/>
  <path d="m17.631 18.509c-0.07772 0-0.15748 0.04582-0.18537 0.13749-0.29691 0.98239-0.93051 1.2494-0.93051 1.9408 0 0.61374 0.49816 1.11 1.1159 1.11 0.61773 0 1.1159-0.49622 1.1159-1.11 0-0.69544-0.6336-0.95446-0.93051-1.9408-0.02591-0.08966-0.10568-0.13749-0.18537-0.13749z"/>
 </g>
</svg>
