<?xml version="1.0" encoding="UTF-8" standalone="no"?>
<svg
   width="100"
   height="100"
   version="1.1"
   viewBox="0 0 26.458 26.458"
   id="svg26"
   sodipodi:docname="n-few.svg"
   inkscape:version="1.1.2 (0a00cf5339, 2022-02-04)"
   xmlns:inkscape="http://www.inkscape.org/namespaces/inkscape"
   xmlns:sodipodi="http://sodipodi.sourceforge.net/DTD/sodipodi-0.dtd"
   xmlns="http://www.w3.org/2000/svg"
   xmlns:svg="http://www.w3.org/2000/svg"
   xmlns:rdf="http://www.w3.org/1999/02/22-rdf-syntax-ns#"
   xmlns:cc="http://creativecommons.org/ns#"
   xmlns:dc="http://purl.org/dc/elements/1.1/">
  <defs
     id="defs30" />
  <sodipodi:namedview
     id="namedview28"
     pagecolor="#ffffff"
     bordercolor="#000000"
     borderopacity="0.25"
     inkscape:pageshadow="2"
     inkscape:pageopacity="0.0"
     inkscape:pagecheckerboard="0"
     showgrid="false"
     inkscape:zoom="7.82"
     inkscape:cx="49.936061"
     inkscape:cy="49.936061"
     inkscape:window-width="1846"
     inkscape:window-height="1016"
     inkscape:window-x="0"
     inkscape:window-y="0"
     inkscape:window-maximized="1"
     inkscape:current-layer="svg26" />
  <metadata
     id="metadata2">
    <rdf:RDF>
      <cc:Work
         rdf:about="">
        <dc:format>image/svg+xml</dc:format>
        <dc:type
           rdf:resource="http://purl.org/dc/dcmitype/StillImage" />
      </cc:Work>
    </rdf:RDF>
  </metadata>
  <path
     d="m18.627 4.4763a3.3404 3.1195 2.0644 0 0-0.65092 0.13353 3.3404 3.1195 2.0644 0 0-2.0926 1.915 3.1007 3.1265 86.379 0 0-0.64011 0.13608 3.1007 3.1265 86.379 0 0-1.9935 3.9162 3.1007 3.1265 86.379 0 0 3.9467 1.9731 3.1007 3.1265 86.379 0 0 1.3074-0.83446 3.4491 4.3776 71.908 0 0 4.7376 1.0116 3.4491 4.3776 71.908 0 0 3.0777-4.6424 3.4491 4.3776 71.908 0 0-4.4334-2.1061 3.3404 3.1195 2.0644 0 0-3.2589-1.5027z"
     fill="#fff"
     style="paint-order:normal"
     id="path24" />
  <path
     d="m 12.355784,3.9347172 a 9.4159,9.4322 60.838 0 0 -4.1529002,2.1705 9.4159,9.4322 60.838 0 0 -0.7122,13.3039998 9.4159,9.4322 60.838 0 0 13.3150002,0.69183 9.4159,9.4322 60.838 0 0 0.57675,-0.57396 9.4159,9.4322 60.838 0 1 -9.1631,-2.8613 9.4159,9.4322 60.838 0 1 0.13654,-12.7309998 z"
     fill="#ffb300"
     style="paint-order:normal"
     id="path4" />
</svg>
