<?xml version="1.0" encoding="UTF-8"?>
<svg width="100" height="100" version="1.1" viewBox="0 0 26.458 26.458" xmlns="http://www.w3.org/2000/svg" xmlns:cc="http://creativecommons.org/ns#" xmlns:dc="http://purl.org/dc/elements/1.1/" xmlns:rdf="http://www.w3.org/1999/02/22-rdf-syntax-ns#">
 <metadata>
  <rdf:RDF>
   <cc:Work rdf:about="">
    <dc:format>image/svg+xml</dc:format>
    <dc:type rdf:resource="http://purl.org/dc/dcmitype/StillImage"/>
   </cc:Work>
  </rdf:RDF>
 </metadata>
 <path d="m10.661 0.23a5.8547 5.4675 2.0644 0 0-1.1409 0.23406 5.8547 5.4675 2.0644 0 0-3.6677 3.3562 5.4347 5.48 86.379 0 0-1.1219 0.23853 5.4347 5.48 86.379 0 0-3.494 6.8641 5.4347 5.48 86.379 0 0 6.9175 3.4583 5.4347 5.48 86.379 0 0 2.2916-1.4626 6.045 7.6726 71.908 0 0 8.3034 1.773 6.045 7.6726 71.908 0 0 5.3944-8.1367 6.045 7.6726 71.908 0 0-7.7705-3.6911 5.8547 5.4675 2.0644 0 0-5.7119-2.6338z" fill="#fff" style="paint-order:normal"/>
 <g fill="#80b2de" stroke="#80b2de">
  <path d="m10.256 14.868a0.051006 0.051006 0 0 0-0.04082 0.05116v0.4532l-0.32038-0.32038a0.051006 0.051006 0 0 0-0.072347 0l-0.14831 0.14831a0.051006 0.051006 0 0 0 0 0.07235l0.54104 0.53485v1.2521l-1.0836-0.62682-0.19947-0.73432a0.051006 0.051006 0 0 0-0.060462-0.03514l-0.19947 0.05064a0.051006 0.051006 0 0 0-0.036689 0.06253l0.11679 0.44338-0.39221-0.22841a0.051006 0.051006 0 0 0-0.070278 0.01757l-0.1018 0.1757a0.051006 0.051006 0 0 0 0.019637 0.07028l0.39221 0.22841-0.43717 0.11937a0.051006 0.051006 0 0 0-0.037205 0.06253l0.050643 0.19895a0.051006 0.051006 0 0 0 0.062528 0.03514l0.74051-0.1974 1.078 0.62528-1.078 0.62475-0.74051-0.19895a0.051006 0.051006 0 0 0-0.062528 0.03721l-0.050643 0.19895a0.051006 0.051006 0 0 0 0.037205 0.06046l0.43717 0.12144-0.39221 0.22841a0.051006 0.051006 0 0 0-0.019637 0.07028l0.1018 0.1757a0.051006 0.051006 0 0 0 0.070278 0.01757l0.39221-0.22841-0.11679 0.44338a0.051006 0.051006 0 0 0 0.036689 0.06253l0.19947 0.05064a0.051006 0.051006 0 0 0 0.060462-0.03514l0.19947-0.73432 1.0836-0.62682v1.2516l-0.54104 0.53535a0.051006 0.051006 0 0 0 0 0.07235l0.14831 0.14624a0.051006 0.051006 0 0 0 0.072347 0l0.32038-0.32038v0.45526a0.051006 0.051006 0 0 0 0.05064 0.05064h0.20515a0.051006 0.051006 0 0 0 0.05116-0.05064v-0.45526l0.31988 0.32038a0.051006 0.051006 0 0 0 0.07235 0l0.14676-0.14624a0.051006 0.051006 0 0 0 0-0.07235l-0.53898-0.53535v-1.2516l1.0836 0.62682 0.1974 0.73432a0.051006 0.051006 0 0 0 0.06253 0.03514l0.19895-0.05064a0.051006 0.051006 0 0 0 0.03514-0.06253l-0.11524-0.44338 0.39274 0.22841a0.051006 0.051006 0 0 0 0.07028-0.01757l0.1018-0.1757a0.051006 0.051006 0 0 0-0.01964-0.07028l-0.39274-0.22841 0.4377-0.12144a0.051006 0.051006 0 0 0 0.03721-0.06046l-0.05271-0.19895a0.051006 0.051006 0 0 0-0.06253-0.03721l-0.73844 0.19895-1.078-0.62475 1.078-0.62528 0.73844 0.1974a0.051006 0.051006 0 0 0 0.06253-0.03514l0.05271-0.19895a0.051006 0.051006 0 0 0-0.03721-0.06253l-0.4377-0.11937 0.39274-0.22841a0.051006 0.051006 0 0 0 0.01964-0.07028l-0.10181-0.17569a0.051006 0.051006 0 0 0-0.07028-0.01757l-0.39274 0.22841 0.11524-0.44338a0.051006 0.051006 0 0 0-0.03514-0.06253l-0.19895-0.05064a0.051006 0.051006 0 0 0-0.06253 0.03514l-0.1974 0.73432-1.0836 0.62682v-1.2521l0.53898-0.53485a0.051006 0.051006 0 0 0 0-0.07235l-0.14676-0.14831a0.051006 0.051006 0 0 0-0.07235 0l-0.31988 0.32038v-0.4532a0.051006 0.051006 0 0 0-0.05116-0.05116h-0.20515a0.051006 0.051006 0 0 0-0.0093 0h-5.29e-4z" stroke-linejoin="bevel" stroke-width=".10213"/>
  <path d="m16.13 18.572a0.051006 0.051006 0 0 0-0.04754 0.05271v0.45267l-0.32038-0.31988a0.051006 0.051006 0 0 0-0.07235 0l-0.14624 0.14831a0.051006 0.051006 0 0 0 0 0.07235l0.53898 0.53329v1.2516l-1.0821-0.62682-0.19895-0.73225a0.051006 0.051006 0 0 0-0.06253-0.03721l-0.1974 0.05271a0.051006 0.051006 0 0 0-0.03721 0.06046l0.11524 0.44132-0.39274-0.22634a0.051006 0.051006 0 0 0-0.06821 0.01964l-0.10335 0.1757a0.051006 0.051006 0 0 0 0.01964 0.07028l0.39221 0.22841-0.43716 0.11937a0.051006 0.051006 0 0 0-0.03514 0.06253l0.05064 0.19688a0.051006 0.051006 0 0 0 0.06253 0.03721l0.73844-0.19895 1.08 0.62682-1.08 0.62475-0.73844-0.19895a0.051006 0.051006 0 0 0-0.06253 0.03721l-0.05064 0.19688a0.051006 0.051006 0 0 0 0.03514 0.06253l0.43926 0.12144-0.39428 0.22841a0.051006 0.051006 0 0 0-0.01964 0.06821l0.10335 0.1757a0.051006 0.051006 0 0 0 0.06821 0.01964l0.39274-0.22634-0.11524 0.44132a0.051006 0.051006 0 0 0 0.03721 0.06253l0.1974 0.05064a0.051006 0.051006 0 0 0 0.06253-0.03721l0.19895-0.73225 1.0821-0.62682v1.2516l-0.53898 0.53535a0.051006 0.051006 0 0 0 0 0.07235l0.14624 0.14624a0.051006 0.051006 0 0 0 0.07235 0l0.32038-0.32038v0.45526a0.051006 0.051006 0 0 0 0.05271 0.05064h0.20309a0.051006 0.051006 0 0 0 0.05064-0.05064v-0.45682l0.32038 0.32194a0.051006 0.051006 0 0 0 0.07235 0l0.14831-0.14624a0.051006 0.051006 0 0 0 0-0.07235l-0.54104-0.53535v-1.2516l1.0842 0.62682 0.19947 0.73225a0.051006 0.051006 0 0 0 0.06046 0.03721l0.19895-0.05064a0.051006 0.051006 0 0 0 0.03721-0.06253l-0.1173-0.44338 0.39274 0.22841a0.051006 0.051006 0 0 0 0.07028-0.01964l0.1018-0.1757a0.051006 0.051006 0 0 0-0.01757-0.06821l-0.39687-0.22841 0.44182-0.12144a0.051006 0.051006 0 0 0 0.03514-0.06253l-0.05116-0.19688a0.051006 0.051006 0 0 0-0.01137-0.0217 0.051006 0.051006 0 0 0-0.05116-0.0155l-0.74 0.19895-1.08-0.62475 1.08-0.62682 0.74 0.19895a0.051006 0.051006 0 0 0 0.06253-0.03721l0.05116-0.19688a0.051006 0.051006 0 0 0-0.03514-0.06253l-0.43976-0.11937 0.39481-0.22841a0.051006 0.051006 0 0 0 0.01757-0.07028l-0.10181-0.1757a0.051006 0.051006 0 0 0-0.07028-0.01964l-0.39274 0.22841 0.1173-0.44338a0.051006 0.051006 0 0 0-0.03721-0.06046l-0.19895-0.05271a0.051006 0.051006 0 0 0-0.06046 0.03721l-0.19947 0.73225-1.0842 0.62682v-1.2516l0.54104-0.53329a0.051006 0.051006 0 0 0 0-0.07235l-0.14831-0.14831a0.051006 0.051006 0 0 0-0.07235 0l-0.32038 0.32194v-0.45476a0.051006 0.051006 0 0 0-0.05064-0.05271h-0.20309a0.051006 0.051006 0 0 0-0.0052 0z" stroke-linecap="round" stroke-linejoin="round" stroke-width=".102"/>
  <path d="m8.6814 21.218a0.051006 0.051006 0 0 0-0.040825 0.05064v0.4532l-0.32038-0.32038a0.051006 0.051006 0 0 0-0.072347 0l-0.14831 0.14883a0.051006 0.051006 0 0 0 0 0.07183l0.54104 0.53329v1.2521l-1.0842-0.62682-0.19895-0.73276a0.051006 0.051006 0 0 0-0.060978-0.03514l-0.19895 0.05116a0.051006 0.051006 0 0 0-0.037205 0.06253l0.1173 0.44285-0.39274-0.22841a0.051006 0.051006 0 0 0-0.064079 0.0098 0.051006 0.051006 0 0 0-0.0062 0.0078l-0.10129 0.17567a0.051006 0.051006 0 0 0 0.017571 0.0708l0.39428 0.22841-0.43717 0.11886a0.051006 0.051006 0 0 0-0.037205 0.06253l0.050643 0.1974a0.051006 0.051006 0 0 0 0.062528 0.03721l0.74-0.1974 1.08 0.62528-1.08 0.62475-0.74-0.19947a0.051006 0.051006 0 0 0-0.062528 0.03721l-0.050643 0.1974a0.051006 0.051006 0 0 0 0.037205 0.06253l0.43926 0.12092-0.39634 0.22892a0.051006 0.051006 0 0 0-0.017571 0.06821l0.10128 0.1757a0.051006 0.051006 0 0 0 0.070278 0.01964l0.39274-0.22841-0.1173 0.44338a0.051006 0.051006 0 0 0 0.037205 0.06201l0.19895 0.05116a0.051006 0.051006 0 0 0 0.060978-0.03721l0.19895-0.73225 1.0842-0.62735v1.2521l-0.54104 0.53535a0.051006 0.051006 0 0 0 0 0.07183l0.14831 0.14676a0.051006 0.051006 0 0 0 0.072347 0l0.32038-0.32038v0.45526a0.051006 0.051006 0 0 0 0.050643 0.05064h0.20309a0.051006 0.051006 0 0 0 0.05271-0.05064v-0.45526l0.32038 0.32038a0.051006 0.051006 0 0 0 0.072347 0l0.14624-0.14676a0.051006 0.051006 0 0 0 0-0.07183l-0.53898-0.53536v-1.2521l1.0842 0.62735 0.1974 0.73225a0.051006 0.051006 0 0 0 0.0155 0.02532 0.051006 0.051006 0 0 0 0.04702 0.01189l0.19688-0.05116a0.051006 0.051006 0 0 0 0.03721-0.06201l-0.11524-0.44182 0.39274 0.22686a0.051006 0.051006 0 0 0 0.06821-0.01964l0.10335-0.1757a0.051006 0.051006 0 0 0-0.01912-0.06821l-0.39481-0.22892 0.43976-0.12092a0.051006 0.051006 0 0 0 0.03514-0.06253l-0.05116-0.1974a0.051006 0.051006 0 0 0-0.06253-0.03721l-0.73794 0.19947-1.08-0.62475 1.08-0.62528 0.73794 0.1974a0.051006 0.051006 0 0 0 0.06253-0.03721l0.05116-0.1974a0.051006 0.051006 0 0 0-0.03514-0.06253l-0.4377-0.11885 0.39274-0.22841a0.051006 0.051006 0 0 0 0.01912-0.0708l-0.10335-0.1757a0.051006 0.051006 0 0 0-0.06821-0.01757l-0.39274 0.22686 0.11524-0.44132a0.051006 0.051006 0 0 0-0.03721-0.06253l-0.19688-0.05116a0.051006 0.051006 0 0 0-0.06253 0.03514l-0.1974 0.73275-1.0842 0.62682v-1.2521l0.53898-0.53329a0.051006 0.051006 0 0 0 0-0.07183l-0.14624-0.14883a0.051006 0.051006 0 0 0-0.072347 0l-0.32038 0.32038v-0.4532a0.051006 0.051006 0 0 0-0.05271-0.05064h-0.20308a0.051006 0.051006 0 0 0-0.00982 0z" stroke-linecap="round" stroke-linejoin="round" stroke-width=".102"/>
 </g>
</svg>
