<?xml version="1.0" encoding="UTF-8"?>
<svg width="100" height="100" version="1.1" viewBox="0 0 26.458 26.458" xmlns="http://www.w3.org/2000/svg" xmlns:cc="http://creativecommons.org/ns#" xmlns:dc="http://purl.org/dc/elements/1.1/" xmlns:rdf="http://www.w3.org/1999/02/22-rdf-syntax-ns#">
 <metadata>
  <rdf:RDF>
   <cc:Work rdf:about="">
    <dc:format>image/svg+xml</dc:format>
    <dc:type rdf:resource="http://purl.org/dc/dcmitype/StillImage"/>
    <dc:title/>
   </cc:Work>
  </rdf:RDF>
 </metadata>
 <g fill="#ffb300" shape-rendering="auto">
  <path d="m4.0081 10.088a0.52989 0.53081 60 0 0-0.11827 1.0409l2.8975 0.77651a0.53085 0.53177 60 1 0 0.27883-1.0254l-2.9014-0.77259a0.52989 0.53081 60 0 0-0.15664-0.01952z" color="#000000" color-rendering="auto" dominant-baseline="auto" image-rendering="auto" solid-color="#000000" style="font-feature-settings:normal;font-variant-alternates:normal;font-variant-caps:normal;font-variant-ligatures:normal;font-variant-numeric:normal;font-variant-position:normal;isolation:auto;mix-blend-mode:normal;shape-padding:0;text-decoration-color:#000000;text-decoration-line:none;text-decoration-style:solid;text-indent:0;text-orientation:mixed;text-transform:none;white-space:normal"/>
  <path d="m19.737 14.286a0.52989 0.53081 60 0 0-0.11827 1.0448l2.9014 0.77259a0.53035 0.53126 60 1 0 0.27491-1.0254l-2.9014-0.77259a0.52989 0.53081 60 0 0-0.15664-0.01952z" color="#000000" color-rendering="auto" dominant-baseline="auto" image-rendering="auto" solid-color="#000000" style="font-feature-settings:normal;font-variant-alternates:normal;font-variant-caps:normal;font-variant-ligatures:normal;font-variant-numeric:normal;font-variant-position:normal;isolation:auto;mix-blend-mode:normal;shape-padding:0;text-decoration-color:#000000;text-decoration-line:none;text-decoration-style:solid;text-indent:0;text-orientation:mixed;text-transform:none;white-space:normal"/>
  <path d="m16.632 18.311a0.52989 0.53081 60 0 0-0.43531 0.80248l1.502 2.5971a0.52989 0.53081 60 1 0 0.91682-0.52893l-1.4981-2.6009a0.52989 0.53081 60 0 0-0.48543-0.26963z" color="#000000" color-rendering="auto" dominant-baseline="auto" image-rendering="auto" solid-color="#000000" style="font-feature-settings:normal;font-variant-alternates:normal;font-variant-caps:normal;font-variant-ligatures:normal;font-variant-numeric:normal;font-variant-position:normal;isolation:auto;mix-blend-mode:normal;shape-padding:0;text-decoration-color:#000000;text-decoration-line:none;text-decoration-style:solid;text-indent:0;text-orientation:mixed;text-transform:none;white-space:normal"/>
  <path d="m8.5006 4.2265a0.52989 0.53081 60 0 0-0.43531 0.80248l1.5019 2.601a0.52989 0.53081 60 1 0 0.91684-0.5328l-1.4981-2.6009a0.52989 0.53081 60 0 0-0.48539-0.26971z" color="#000000" color-rendering="auto" dominant-baseline="auto" image-rendering="auto" solid-color="#000000" style="font-feature-settings:normal;font-variant-alternates:normal;font-variant-caps:normal;font-variant-ligatures:normal;font-variant-numeric:normal;font-variant-position:normal;isolation:auto;mix-blend-mode:normal;shape-padding:0;text-decoration-color:#000000;text-decoration-line:none;text-decoration-style:solid;text-indent:0;text-orientation:mixed;text-transform:none;white-space:normal"/>
  <path d="m7.5598 15.892a0.52989 0.53081 60 0 0-0.23503 0.07453l-2.6055 1.5045a0.53098 0.5319 60 1 0 0.53193 0.91915l2.6015-1.5045a0.52989 0.53081 60 0 0-0.293-0.99371z" color="#000000" color-rendering="auto" dominant-baseline="auto" image-rendering="auto" solid-color="#000000" style="font-feature-settings:normal;font-variant-alternates:normal;font-variant-caps:normal;font-variant-ligatures:normal;font-variant-numeric:normal;font-variant-position:normal;isolation:auto;mix-blend-mode:normal;shape-padding:0;text-decoration-color:#000000;text-decoration-line:none;text-decoration-style:solid;text-indent:0;text-orientation:mixed;text-transform:none;white-space:normal"/>
  <path d="m21.669 7.7461a0.52989 0.53081 60 0 0-0.23503 0.074529l-2.6055 1.5045a0.53001 0.53093 60 1 0 0.52801 0.91915l2.6055-1.5045a0.52989 0.53081 60 0 0-0.29298-0.99367z" color="#000000" color-rendering="auto" dominant-baseline="auto" image-rendering="auto" solid-color="#000000" style="font-feature-settings:normal;font-variant-alternates:normal;font-variant-caps:normal;font-variant-ligatures:normal;font-variant-numeric:normal;font-variant-position:normal;isolation:auto;mix-blend-mode:normal;shape-padding:0;text-decoration-color:#000000;text-decoration-line:none;text-decoration-style:solid;text-indent:0;text-orientation:mixed;text-transform:none;white-space:normal"/>
  <path d="m15.817 3.2584a0.52989 0.53081 60 0 0-0.48592 0.39947l-0.7776 2.9001a0.52989 0.53081 60 1 0 1.022 0.27314l0.78152-2.9001a0.52989 0.53081 60 0 0-0.53995-0.67262z" color="#000000" color-rendering="auto" dominant-baseline="auto" image-rendering="auto" solid-color="#000000" style="font-feature-settings:normal;font-variant-alternates:normal;font-variant-caps:normal;font-variant-ligatures:normal;font-variant-numeric:normal;font-variant-position:normal;isolation:auto;mix-blend-mode:normal;shape-padding:0;text-decoration-color:#000000;text-decoration-line:none;text-decoration-style:solid;text-indent:0;text-orientation:mixed;text-transform:none;white-space:normal"/>
  <path d="m11.591 18.98a0.52989 0.53081 60 0 0-0.48593 0.39947l-0.78152 2.9001a0.53035 0.53126 60 1 0 1.0259 0.27314l0.78152-2.9001a0.52989 0.53081 60 0 0-0.53995-0.67262z" color="#000000" color-rendering="auto" dominant-baseline="auto" image-rendering="auto" solid-color="#000000" style="font-feature-settings:normal;font-variant-alternates:normal;font-variant-caps:normal;font-variant-ligatures:normal;font-variant-numeric:normal;font-variant-position:normal;isolation:auto;mix-blend-mode:normal;shape-padding:0;text-decoration-color:#000000;text-decoration-line:none;text-decoration-style:solid;text-indent:0;text-orientation:mixed;text-transform:none;white-space:normal"/>
 </g>
 <path d="m16.404 16.407a4.5036 4.5114 60 0 1-6.3725-0.2375 4.5036 4.5114 60 0 1 0.24724-6.3674 4.5036 4.5114 60 0 1 6.3726 0.2375 4.5036 4.5114 60 0 1-0.24724 6.3674z" fill="#ffb300" style="paint-order:normal"/>
</svg>
