<?xml version="1.0" encoding="UTF-8"?>
<svg width="100" height="100" version="1.1" viewBox="0 0 26.458 26.458" xmlns="http://www.w3.org/2000/svg" xmlns:cc="http://creativecommons.org/ns#" xmlns:dc="http://purl.org/dc/elements/1.1/" xmlns:rdf="http://www.w3.org/1999/02/22-rdf-syntax-ns#">
 <metadata>
  <rdf:RDF>
   <cc:Work rdf:about="">
    <dc:format>image/svg+xml</dc:format>
    <dc:type rdf:resource="http://purl.org/dc/dcmitype/StillImage"/>
    <dc:title/>
   </cc:Work>
  </rdf:RDF>
 </metadata>
 <path transform="scale(.26458)" d="m45.199 3.168a24.478 22.859 2.0644 0 0-3.6152 0.13672 24.478 22.859 2.0644 0 0-4.7695 0.97852 24.478 22.859 2.0644 0 0-15.334 14.033 22.722 22.911 86.379 0 0-4.6914 0.99609 22.722 22.911 86.379 0 0-14.609 28.699 22.722 22.911 86.379 0 0 28.924 14.459 22.722 22.911 86.379 0 0 5.2305-2.5254l5.4922-13.35c0.68281-1.6616 2.2534-2.7991 4.0449-2.9316l0.058594-0.007812h0.037109l3.7734-0.2793-0.13281 0.36133 3.3574 0.082031c3.3468 0.07018 5.6302 3.7447 4.209 6.7754l-5.5957 12.062 11.885-0.22852h0.007812c2.0485-0.041845 3.6837 1.2914 4.4004 3.0059a25.274 32.079 71.908 0 0 7.5293-1.666 25.274 32.079 71.908 0 0 22.553-34.02 25.274 32.079 71.908 0 0-32.488-15.434 24.478 22.859 2.0644 0 0-20.266-11.148zm1.1816 45.494-3.9414 9.584a25.274 32.079 71.908 0 0 4.1895 3.2012l5.8652-12.637-6.1133-0.14844z" fill="#fff" stroke-width="3.7796" style="paint-order:normal"/>
 <path d="m12.186 12.212a0.5972 0.5972 0 0 0-0.50831 0.36858l-2.6095 6.3426a0.5972 0.5972 0 0 0 0.6083 0.82368l4.2202-0.39293-3.3921 6.1734a0.5972 0.5972 0 0 0 1.0083 0.63715l5.7901-8.0387a0.5972 0.5972 0 0 0-0.49676-0.94739l-4.2056 0.08279 1.9281-4.1549a0.5972 0.5972 0 0 0-0.52818-0.85061l-1.7538-0.04353a0.5972 0.5972 0 0 0-0.0609 0z" fill="#ffb300"/>
</svg>
