<?xml version="1.0" encoding="UTF-8"?>
<svg width="100" height="100" version="1.1" viewBox="0 0 26.458 26.458" xmlns="http://www.w3.org/2000/svg" xmlns:cc="http://creativecommons.org/ns#" xmlns:dc="http://purl.org/dc/elements/1.1/" xmlns:rdf="http://www.w3.org/1999/02/22-rdf-syntax-ns#">
 <style type="text/css"><![CDATA[
     @keyframes rotate {
       0% {
         -webkit-transform: rotate(0deg);
         transform: rotate(0deg);
       }
       25% {
         -webkit-transform: rotate(90deg);
         transform: rotate(90deg);
       }
       50% {
         -webkit-transform: rotate(180deg);
         transform: rotate(180deg);
       }
       75% {
         -webkit-transform: rotate(270deg);
         transform: rotate(270deg);
       }
       100% {
         -webkit-transform: rotate(360deg);
         transform: rotate(360deg);
       }
     }

    .rotate {
       -webkit-transform-origin: center;
       transform-origin: center;           
       -webkit-animation: rotate 15s normal linear infinite;
       animation: rotate 15s normal linear infinite;
    }
  ]]></style>
 <metadata>
  <rdf:RDF>
   <cc:Work rdf:about="">
    <dc:format>image/svg+xml</dc:format>
    <dc:type rdf:resource="http://purl.org/dc/dcmitype/StillImage"/>
   </cc:Work>
  </rdf:RDF>
 </metadata>
 <g class="rotate" fill="#ffb300" shape-rendering="auto">
  <path d="m4.0081 10.088a0.52989 0.53081 60 0 0-0.11827 1.0409l2.8975 0.77651a0.53085 0.53177 60 1 0 0.27883-1.0254l-2.9014-0.77259a0.52989 0.53081 60 0 0-0.15664-0.01952z" color="#000000" color-rendering="auto" dominant-baseline="auto" image-rendering="auto" solid-color="#000000" style="font-feature-settings:normal;font-variant-alternates:normal;font-variant-caps:normal;font-variant-ligatures:normal;font-variant-numeric:normal;font-variant-position:normal;isolation:auto;mix-blend-mode:normal;shape-padding:0;text-decoration-color:#000000;text-decoration-line:none;text-decoration-style:solid;text-indent:0;text-orientation:mixed;text-transform:none;white-space:normal"/>
  <path d="m19.737 14.286a0.52989 0.53081 60 0 0-0.11827 1.0448l2.9014 0.77259a0.53035 0.53126 60 1 0 0.27491-1.0254l-2.9014-0.77259a0.52989 0.53081 60 0 0-0.15664-0.01952z" color="#000000" color-rendering="auto" dominant-baseline="auto" image-rendering="auto" solid-color="#000000" style="font-feature-settings:normal;font-variant-alternates:normal;font-variant-caps:normal;font-variant-ligatures:normal;font-variant-numeric:normal;font-variant-position:normal;isolation:auto;mix-blend-mode:normal;shape-padding:0;text-decoration-color:#000000;text-decoration-line:none;text-decoration-style:solid;text-indent:0;text-orientation:mixed;text-transform:none;white-space:normal"/>
  <path d="m16.632 18.311a0.52989 0.53081 60 0 0-0.43531 0.80248l1.502 2.5971a0.52989 0.53081 60 1 0 0.91682-0.52893l-1.4981-2.6009a0.52989 0.53081 60 0 0-0.48543-0.26963z" color="#000000" color-rendering="auto" dominant-baseline="auto" image-rendering="auto" solid-color="#000000" style="font-feature-settings:normal;font-variant-alternates:normal;font-variant-caps:normal;font-variant-ligatures:normal;font-variant-numeric:normal;font-variant-position:normal;isolation:auto;mix-blend-mode:normal;shape-padding:0;text-decoration-color:#000000;text-decoration-line:none;text-decoration-style:solid;text-indent:0;text-orientation:mixed;text-transform:none;white-space:normal"/>
  <path d="m8.5006 4.2265a0.52989 0.53081 60 0 0-0.43531 0.80248l1.5019 2.601a0.52989 0.53081 60 1 0 0.91684-0.5328l-1.4981-2.6009a0.52989 0.53081 60 0 0-0.48539-0.26971z" color="#000000" color-rendering="auto" dominant-baseline="auto" image-rendering="auto" solid-color="#000000" style="font-feature-settings:normal;font-variant-alternates:normal;font-variant-caps:normal;font-variant-ligatures:normal;font-variant-numeric:normal;font-variant-position:normal;isolation:auto;mix-blend-mode:normal;shape-padding:0;text-decoration-color:#000000;text-decoration-line:none;text-decoration-style:solid;text-indent:0;text-orientation:mixed;text-transform:none;white-space:normal"/>
  <path d="m7.5598 15.892a0.52989 0.53081 60 0 0-0.23503 0.07453l-2.6055 1.5045a0.53098 0.5319 60 1 0 0.53193 0.91915l2.6015-1.5045a0.52989 0.53081 60 0 0-0.293-0.99371z" color="#000000" color-rendering="auto" dominant-baseline="auto" image-rendering="auto" solid-color="#000000" style="font-feature-settings:normal;font-variant-alternates:normal;font-variant-caps:normal;font-variant-ligatures:normal;font-variant-numeric:normal;font-variant-position:normal;isolation:auto;mix-blend-mode:normal;shape-padding:0;text-decoration-color:#000000;text-decoration-line:none;text-decoration-style:solid;text-indent:0;text-orientation:mixed;text-transform:none;white-space:normal"/>
  <path d="m21.669 7.7461a0.52989 0.53081 60 0 0-0.23503 0.074529l-2.6055 1.5045a0.53001 0.53093 60 1 0 0.52801 0.91915l2.6055-1.5045a0.52989 0.53081 60 0 0-0.29298-0.99367z" color="#000000" color-rendering="auto" dominant-baseline="auto" image-rendering="auto" solid-color="#000000" style="font-feature-settings:normal;font-variant-alternates:normal;font-variant-caps:normal;font-variant-ligatures:normal;font-variant-numeric:normal;font-variant-position:normal;isolation:auto;mix-blend-mode:normal;shape-padding:0;text-decoration-color:#000000;text-decoration-line:none;text-decoration-style:solid;text-indent:0;text-orientation:mixed;text-transform:none;white-space:normal"/>
  <path d="m15.817 3.2584a0.52989 0.53081 60 0 0-0.48592 0.39947l-0.7776 2.9001a0.52989 0.53081 60 1 0 1.022 0.27314l0.78152-2.9001a0.52989 0.53081 60 0 0-0.53995-0.67262z" color="#000000" color-rendering="auto" dominant-baseline="auto" image-rendering="auto" solid-color="#000000" style="font-feature-settings:normal;font-variant-alternates:normal;font-variant-caps:normal;font-variant-ligatures:normal;font-variant-numeric:normal;font-variant-position:normal;isolation:auto;mix-blend-mode:normal;shape-padding:0;text-decoration-color:#000000;text-decoration-line:none;text-decoration-style:solid;text-indent:0;text-orientation:mixed;text-transform:none;white-space:normal"/>
  <path d="m11.591 18.98a0.52989 0.53081 60 0 0-0.48593 0.39947l-0.78152 2.9001a0.53035 0.53126 60 1 0 1.0259 0.27314l0.78152-2.9001a0.52989 0.53081 60 0 0-0.53995-0.67262z" color="#000000" color-rendering="auto" dominant-baseline="auto" image-rendering="auto" solid-color="#000000" style="font-feature-settings:normal;font-variant-alternates:normal;font-variant-caps:normal;font-variant-ligatures:normal;font-variant-numeric:normal;font-variant-position:normal;isolation:auto;mix-blend-mode:normal;shape-padding:0;text-decoration-color:#000000;text-decoration-line:none;text-decoration-style:solid;text-indent:0;text-orientation:mixed;text-transform:none;white-space:normal"/>
 </g>
 <path transform="scale(.26458)" d="m50.449 32.5a17.022 17.051 60 0 0-11.6 4.5469 17.022 17.051 60 0 0-1.334 1.4023c0.90276-0.40647 1.8379-0.76095 2.8047-1.0586 1.578-0.48323 3.2011-0.81843 4.8496-0.99805l-1.7422 2.377 1.75-2.377c8.1442-0.876 16.067 2.127 21.43 7.7949a17.022 17.051 60 0 0-3.6719-6.2422 17.022 17.051 60 0 0-12.486-5.4453zm-2.5293 7.7422c-0.76756 0.003371-1.5402 0.04563-2.3145 0.12891-1.3996 0.1525-2.7756 0.43278-4.1113 0.8418-2.865 0.88204-5.4321 2.3176-7.5801 4.1602a17.022 17.051 60 0 0 4 15.74 17.022 17.051 60 0 0 24.086 0.89844 17.022 17.051 60 0 0 5.4355-11.621l-1.2852-0.57031c-3.8402-5.9783-10.811-9.6107-18.23-9.5781z" fill="#ffb300" stroke-width="3.7796" style="paint-order:normal"/>
 <path d="m12.009 10.155a6.0863 5.6902 2.0986 0 0-1.186 0.24357 6.0863 5.6902 2.0986 0 0-3.8128 3.4931 5.6559 5.6966 85.819 0 0-1.1663 0.24822 5.6559 5.6966 85.819 0 0-3.6322 7.1434 5.6559 5.6966 85.819 0 0 7.191 3.5991 5.6559 5.6966 85.819 0 0 2.3821-1.5221 6.2907 7.977 71.827 0 0 8.6321 1.8452 6.2907 7.977 71.827 0 0 5.6077-8.468 6.2907 7.977 71.827 0 0-8.0778-3.8417 6.0863 5.6902 2.0986 0 0-5.9378-2.741z" fill="#fff" style="paint-order:normal"/>
</svg>
