<?xml version="1.0" encoding="UTF-8"?>
<svg width="100" height="100" version="1.1" viewBox="0 0 26.458 26.458" xmlns="http://www.w3.org/2000/svg" xmlns:cc="http://creativecommons.org/ns#" xmlns:dc="http://purl.org/dc/elements/1.1/" xmlns:rdf="http://www.w3.org/1999/02/22-rdf-syntax-ns#">
 <style type="text/css"><![CDATA[
     @keyframes drop {
       0% { 
        transform: translateY(-5%) translateX(-3%); 
        -webkit-transform: translateY(-5%) translateX(-3%);
       }
       100% { 
        transform: translateY(55%) translateX(-27%); 
        -webkit-transform: translateY(55%) translateX(-27%); 
       }
     }
   ]]></style>
 <g transform="translate(6.1254 -280.33)" fill="#fff" stroke="#80b2de" stroke-linecap="round" stroke-linejoin="round" stroke-width="1.001">
  <path style="-webkit-animation:drop 1250ms normal linear infinite;animation:drop 1250ms normal linear infinite" d="m12.114 289.69-2.7493 4.4051"/>
  <path style="-webkit-animation:drop 1450ms normal linear infinite;animation:drop 1450ms normal linear infinite" d="m16.581 289.69-2.7493 4.4051"/>
  <path style="-webkit-animation:drop 1650ms normal linear infinite;animation:drop 1650ms normal linear infinite" d="m7.6477 289.69-2.7493 4.4051"/>
 </g>
 <path d="m11.216 2.43a5.8547 5.4675 2.0644 0 0-1.1409 0.23406 5.8547 5.4675 2.0644 0 0-3.6677 3.3562 5.4347 5.48 86.379 0 0-1.1219 0.23853 5.4347 5.48 86.379 0 0-3.494 6.8641 5.4347 5.48 86.379 0 0 6.9175 3.4583 5.4347 5.48 86.379 0 0 2.2916-1.4626 6.045 7.6726 71.908 0 0 8.3034 1.773 6.045 7.6726 71.908 0 0 5.3944-8.1367 6.045 7.6726 71.908 0 0-7.7705-3.6911 5.8547 5.4675 2.0644 0 0-5.7119-2.6338z" fill="#fff" style="paint-order:normal"/>
</svg>
