<?xml version="1.0" encoding="UTF-8"?>
<svg width="100" height="100" version="1.1" viewBox="0 0 26.458 26.458" xmlns="http://www.w3.org/2000/svg">
 <style type="text/css"><![CDATA[
     @keyframes drop {
       0% { transform: translateY(0%); -webkit-transform: translateY(0%) }
       100% { transform: translateY(70%); -webkit-transform: translateY(70%) }
     }     
   ]]></style>
 <g stroke="#80b2de" stroke-linecap="round" stroke-linejoin="round" stroke-width=".39687">
  <g transform="translate(7.5075 -6.5434)">
   <g style="-webkit-animation:drop 1300ms normal linear infinite;animation:drop 1300ms normal linear infinite">
    <path d="m10.377 15.012v4.67" fill="#f2f2f2"/>
    <path d="m9.7794 15.292 0.59748 0.62253 0.59748-0.62253" fill="none"/>
    <path d="m10.974 19.403-0.59748-0.62253-0.59748 0.62253" fill="none"/>
    <path d="m12.403 16.186-4.0514 2.3228" fill="#f2f2f2"/>
    <path d="m11.863 15.807-0.24289 0.82797 0.83724 0.2087" fill="none"/>
    <path d="m8.8909 18.888 0.24289-0.82797-0.83724-0.2087" fill="none"/>
    <path d="m12.396 18.521-4.0373-2.3472" fill="#f2f2f2"/>
    <path d="m12.454 17.864-0.83849 0.20364 0.23788 0.82942" fill="none"/>
    <path d="m8.2996 16.831 0.83849-0.20364-0.23788-0.82942" fill="none"/>
   </g>
  </g>
  <g transform="translate(8.0842 -12.562)">
   <g style="-webkit-animation:drop 1825ms normal linear infinite;animation:drop 1825ms normal linear infinite">
    <path d="m-1.9985 21.031v4.67" fill="#f2f2f2"/>
    <path d="m-2.596 21.31 0.59748 0.62253 0.59748-0.62253" fill="none"/>
    <path d="m-1.4011 25.421-0.59748-0.62253-0.59748 0.62253" fill="none"/>
    <path d="m0.027134 22.204-4.0514 2.3228" fill="#f2f2f2"/>
    <path d="m-0.51249 21.825-0.24289 0.82797 0.83724 0.2087" fill="none"/>
    <path d="m-3.4846 24.907 0.24289-0.82797-0.83724-0.2087" fill="none"/>
    <path d="m0.020081 24.539-4.0373-2.3472" fill="#f2f2f2"/>
    <path d="m0.078784 23.882-0.83849 0.20364 0.23788 0.82942" fill="none"/>
    <path d="m-4.0759 22.849 0.83849-0.20364-0.23788-0.82942" fill="none"/>
   </g>
  </g>
  <g transform="translate(1.7253 -6.5434)">
   <g style="-webkit-animation:drop 1250ms normal linear infinite;animation:drop 1250ms normal linear infinite">
    <path d="m10.377 15.012v4.67" fill="#f2f2f2"/>
    <path d="m9.7794 15.292 0.59748 0.62253 0.59748-0.62253" fill="none"/>
    <path d="m10.974 19.403-0.59748-0.62253-0.59748 0.62253" fill="none"/>
    <path d="m12.403 16.186-4.0514 2.3228" fill="#f2f2f2"/>
    <path d="m11.863 15.807-0.24289 0.82797 0.83724 0.2087" fill="none"/>
    <path d="m8.8909 18.888 0.24289-0.82797-0.83724-0.2087" fill="none"/>
    <path d="m12.396 18.521-4.0373-2.3472" fill="#f2f2f2"/>
    <path d="m12.454 17.864-0.83849 0.20364 0.23788 0.82942" fill="none"/>
    <path d="m8.2996 16.831 0.83849-0.20364-0.23788-0.82942" fill="none"/>
   </g>
  </g>
 </g>
 <path d="m10.661 1.8175a5.8547 5.4675 2.0644 0 0-1.1409 0.23406 5.8547 5.4675 2.0644 0 0-3.6677 3.3562 5.4347 5.48 86.379 0 0-1.1219 0.23853 5.4347 5.48 86.379 0 0-3.494 6.8641 5.4347 5.48 86.379 0 0 6.9175 3.4583 5.4347 5.48 86.379 0 0 2.2916-1.4626 6.045 7.6726 71.908 0 0 8.3034 1.773 6.045 7.6726 71.908 0 0 5.3944-8.1367 6.045 7.6726 71.908 0 0-7.7705-3.6911 5.8547 5.4675 2.0644 0 0-5.7119-2.6338z" fill="#fff" style="paint-order:normal"/>
</svg>
