<?xml version="1.0" encoding="UTF-8" standalone="no"?>
<!DOCTYPE svg PUBLIC "-//W3C//DTD SVG 1.1//EN" "http://www.w3.org/Graphics/SVG/1.1/DTD/svg11.dtd">
<svg width="100%" height="100%" viewBox="0 0 24 24" version="1.1" xmlns="http://www.w3.org/2000/svg" xmlns:xlink="http://www.w3.org/1999/xlink" xml:space="preserve" xmlns:serif="http://www.serif.com/" style="fill-rule:evenodd;clip-rule:evenodd;stroke-linejoin:round;stroke-miterlimit:2;">
    <g transform="matrix(-0.0354795,-0.0867772,-0.0867772,0.0354795,20.5356,19.0209)">
        <g>
            <path d="M192.7,7.7C191.5,10.1 189.2,15 187.6,18.5L184.6,24.8L181.8,23.4C163.9,14.4 144.6,10.2 123.8,10.8C106.1,11.4 93.2,14.5 77.2,22.2C63.5,28.8 53.3,36.2 42.8,47.1C24.2,66.4 12.6,92.4 10.6,118.7L10,124L12.6,124.4C14,124.6 20.9,125.7 27.9,126.8C34.9,127.9 42.1,129 44,129.2L47.3,129.6L47.7,125.6C49.5,103.4 56.9,86.6 70.8,72.5C81.8,61.3 93.6,54.6 109.3,50.5C115.4,49 116.4,48.8 128.2,48.9C140.1,48.9 140.8,49 147.4,50.7C153.9,52.4 163.5,56.2 166.6,58.2L168,59.1L165.5,64.5C164.1,67.5 162,71.9 160.8,74.3C159.6,76.7 158.8,78.6 159.1,78.6C160.6,78.6 214.3,59.3 214.3,58.7C214.3,58.1 204.8,30.8 195.7,5.3L195,3.2L192.7,7.7Z" style="fill-rule:nonzero;stroke:white;stroke-width:10.67px;"/>
        </g>
    </g>
</svg>
