<?xml version="1.0" encoding="UTF-8"?>
<svg id="svg6" width="100" height="100" version="1.1" viewBox="0 0 26.458 26.458" xmlns="http://www.w3.org/2000/svg">
<style type="text/css" >
   <![CDATA[
     @keyframes wiggle {
       0% {-webkit-transform: rotate(0deg); transform: rotate(0deg)}
       33% {-webkit-transform: rotate(-12deg); transform: rotate(-12deg)}
       66% {-webkit-transform: rotate(10deg); transform: rotate(10deg)}
       100% {-webkit-transform: rotate(0deg); transform: rotate(0deg)}
     }

     .wiggle {
        -webkit-transform-origin: center;
        transform-origin: center;           
        -webkit-animation: wiggle 3s normal linear infinite;
        animation: wiggle 3s normal linear infinite;
     }
   ]]>
</style>       
  <path class="wiggle" fill="#ffb300" d="m12.06 3.1404a10.583 10.583 0 0 0-8.8056 9.4543 10.583 10.583 0 0 0 9.559 11.517 10.583 10.583 0 0 0 10.435-5.7873 9.5656 9.5656 0 0 1-5.2074 0.99903 9.5656 9.5656 0 0 1-8.64-10.409 9.5656 9.5656 0 0 1 2.6589-5.7737z" stroke-width="1.0583"/>

 <path d="m17.096 4.4803a3.9935 3.7294 2.0644 0 0-0.77819 0.15964 3.9935 3.7294 2.0644 0 0-2.5018 2.2894 3.707 3.7378 86.379 0 0-0.76527 0.16269 3.707 3.7378 86.379 0 0-2.3833 4.6819 3.707 3.7378 86.379 0 0 4.7184 2.3589 3.707 3.7378 86.379 0 0 1.563-0.99762 4.1235 5.2335 71.908 0 0 5.6639 1.2094 4.1235 5.2335 71.908 0 0 3.6795-5.5501 4.1235 5.2335 71.908 0 0-5.3002-2.5179 3.9935 3.7294 2.0644 0 0-3.8961-1.7965z" fill="#fff" style="paint-order:normal"/>
</svg>
