<?xml version="1.0" encoding="UTF-8"?>
<svg width="100" height="100" version="1.1" viewBox="0 0 26.458 26.458" xmlns="http://www.w3.org/2000/svg" xmlns:cc="http://creativecommons.org/ns#" xmlns:dc="http://purl.org/dc/elements/1.1/" xmlns:rdf="http://www.w3.org/1999/02/22-rdf-syntax-ns#">
 <style type="text/css"><![CDATA[
     @keyframes drop {
          0% {  opacity: .25}
          30% {  opacity: .65}
          40% {  opacity: 1}
          50% {  opacity: .65}
          70% {  opacity: .65}
          80% {  opacity: 1}
          90% {  opacity: .65}
          100% { opacity: .25}
     }

     .thunder {
        -webkit-transform-origin: center;
        transform-origin: center;               
-webkit-animation:drop 2s normal ease-in infinite;animation:drop 2s normal ease-in infinite;        
     }
   ]]></style>
 <path d="m11.216 2.43a5.8547 5.4675 2.0644 0 0-1.1409 0.23406 5.8547 5.4675 2.0644 0 0-3.6677 3.3562 5.4347 5.48 86.379 0 0-1.1219 0.23853 5.4347 5.48 86.379 0 0-3.494 6.8641 5.4347 5.48 86.379 0 0 6.9175 3.4583 5.4347 5.48 86.379 0 0 2.2916-1.4626 6.045 7.6726 71.908 0 0 8.3034 1.773 6.045 7.6726 71.908 0 0 5.3944-8.1367 6.045 7.6726 71.908 0 0-7.7705-3.6911 5.8547 5.4675 2.0644 0 0-5.7119-2.6338z" fill="#fff" style="paint-order:normal"/>
 <path class="thunder" d="m12.186 12.212a0.5972 0.5972 0 0 0-0.50831 0.36858l-2.6095 6.3426a0.5972 0.5972 0 0 0 0.6083 0.82368l4.2202-0.39293-3.3921 6.1734a0.5972 0.5972 0 0 0 1.0083 0.63715l5.7901-8.0387a0.5972 0.5972 0 0 0-0.49676-0.94739l-4.2056 0.08279 1.9281-4.1549a0.5972 0.5972 0 0 0-0.52818-0.85061l-1.7538-0.04353a0.5972 0.5972 0 0 0-0.0609 0z" fill="#ffb300"/>

</svg>
